<?xml version="1.0" encoding="UTF-8"?>
<!DOCTYPE svg PUBLIC "-//W3C//DTD SVG 1.1//EN" "http://www.w3.org/Graphics/SVG/1.1/DTD/svg11.dtd">
<!-- Creator: CorelDRAW -->
<svg xmlns="http://www.w3.org/2000/svg" xml:space="preserve" width="29.367mm" height="29.367mm" version="1.1" style="shape-rendering:geometricPrecision; text-rendering:geometricPrecision; image-rendering:optimizeQuality; fill-rule:evenodd; clip-rule:evenodd"
viewBox="0 0 5514.97 5514.97"
 xmlns:xlink="http://www.w3.org/1999/xlink"
 xmlns:xodm="http://www.corel.com/coreldraw/odm/2003">
 <defs>
  <style type="text/css">
   <![CDATA[
    .fil0 {fill:#2A4D5F}
   ]]>
  </style>
 </defs>
 <g id="Слой_x0020_1">
  <metadata id="CorelCorpID_0Corel-Layer"/>
  <path class="fil0" d="M2757.49 0l0 0c1516.61,0 2757.49,1240.84 2757.49,2757.49l0 0c0,1516.61 -1240.87,2757.49 -2757.49,2757.49l0 0c-1516.61,0 -2757.49,-1240.87 -2757.49,-2757.49l0 0c0,-1516.65 1240.87,-2757.49 2757.49,-2757.49zm-0.04 3292.52l1057.17 1057.19 344.04 -344 -1401.21 -1401.19 -1401.16 1401.19 343.97 344c352.42,-352.4 704.81,-704.79 1057.19,-1057.19zm0 -1439.24l1057.17 1057.17 344.04 -343.98 -1401.21 -1401.19 -1401.16 1401.19 343.97 343.98c352.42,-352.42 704.81,-704.78 1057.19,-1057.17z"/>
 </g>
</svg>
