<?xml version="1.0" encoding="UTF-8"?>
<!DOCTYPE svg PUBLIC "-//W3C//DTD SVG 1.1//EN" "http://www.w3.org/Graphics/SVG/1.1/DTD/svg11.dtd">
<!-- Creator: CorelDRAW -->
<svg xmlns="http://www.w3.org/2000/svg" xml:space="preserve" width="69px" height="86px" version="1.1" style="shape-rendering:geometricPrecision; text-rendering:geometricPrecision; image-rendering:optimizeQuality; fill-rule:evenodd; clip-rule:evenodd"
viewBox="0 0 2.93 3.62"
 xmlns:xlink="http://www.w3.org/1999/xlink"
 xmlns:xodm="http://www.corel.com/coreldraw/odm/2003">
 <defs>
  <style type="text/css">
   <![CDATA[
    .fil0 {fill:#FEFEFE}
   ]]>
  </style>
 </defs>
 <g id="Слой_x0020_1">
  <metadata id="CorelCorpID_0Corel-Layer"/>
  <path class="fil0" d="M2.93 0.64l0 -0.18 -0.91 0 -0.01 -0.02c0,-0.08 0.01,-0.15 -0.02,-0.23 -0.01,-0.05 -0.05,-0.11 -0.1,-0.14 -0.12,-0.09 -0.28,-0.07 -0.43,-0.07 -0.14,0 -0.31,-0.02 -0.43,0.07 -0.04,0.04 -0.08,0.09 -0.09,0.14 -0.03,0.08 -0.02,0.15 -0.02,0.23l0 0.02 -0.92 0 0 0.18 0.23 0 0.01 0.03c0.05,0.65 0.1,1.31 0.14,1.97 0.02,0.16 0.03,0.33 0.04,0.49 0,0.04 0.01,0.08 0.01,0.12 0.01,0.11 0.03,0.19 0.11,0.27 0.12,0.12 0.24,0.1 0.4,0.1l1.06 0c0.08,0 0.17,0.01 0.24,-0.01 0.06,-0.02 0.11,-0.05 0.15,-0.09 0.11,-0.11 0.11,-0.25 0.12,-0.39 0,-0.09 0.01,-0.17 0.02,-0.25 0.06,-0.74 0.11,-1.48 0.16,-2.21l0.01 -0.02 0.01 -0.01c0.03,0 0.16,0 0.22,0zm-1.83 -0.2c-0.02,-0.31 0.11,-0.26 0.37,-0.26 0.06,0 0.23,-0.01 0.28,0.02 0.1,0.04 0.09,0.15 0.08,0.24l0 0.02 -0.73 0 0 -0.02zm1.41 0.23c-0.01,0.15 -0.02,0.29 -0.03,0.44 -0.01,0.15 -0.03,0.29 -0.04,0.44l-0.13 1.75c-0.01,0.08 -0.07,0.13 -0.14,0.14 -0.05,0.01 -0.14,0 -0.19,0 -0.12,0 -0.25,0 -0.38,0 -0.2,0 -0.4,0 -0.61,0 -0.12,0 -0.35,0.04 -0.37,-0.14 -0.02,-0.15 -0.02,-0.29 -0.04,-0.44 -0.01,-0.15 -0.02,-0.29 -0.03,-0.44 -0.04,-0.58 -0.09,-1.17 -0.13,-1.75l0 -0.03 2.09 0 0 0.03zm-1.6 2.27c0.05,0 0.15,0 0.19,0 0,-0.05 0,-0.1 0,-0.14 0,-0.1 0,-0.2 0,-0.31 0,-0.15 0,-0.3 0,-0.45 0,-0.3 0,-0.59 0,-0.89l-0.18 0c0,0 0,0 0,0 0,0.01 0,0.02 0,0.03 0,0.32 -0.01,0.63 -0.01,0.95 0,0.19 0,0.37 0,0.56 0,0.07 0,0.17 0,0.25zm1.11 0c0,-0.08 0,-0.18 0,-0.25 0,-0.19 0,-0.38 0,-0.56 0,-0.32 0,-0.64 0,-0.95 0,-0.01 0,-0.02 0,-0.03l-0.19 0c0,0 0,0 0,0 0.01,0.33 0,0.65 0,0.98 0,0.18 0,0.37 0,0.56 0,0.07 -0.01,0.17 0,0.25 0.04,0 0.14,0 0.19,0zm-0.64 -0.01l0.18 0 -0.01 -1.78 -0.17 0 0 1.78z"/>
 </g>
</svg>
