<?xml version="1.0" encoding="UTF-8"?>
<!DOCTYPE svg PUBLIC "-//W3C//DTD SVG 1.1//EN" "http://www.w3.org/Graphics/SVG/1.1/DTD/svg11.dtd">
<!-- Creator: CorelDRAW -->
<svg xmlns="http://www.w3.org/2000/svg" xml:space="preserve" width="71px" height="71px" version="1.1" style="shape-rendering:geometricPrecision; text-rendering:geometricPrecision; image-rendering:optimizeQuality; fill-rule:evenodd; clip-rule:evenodd"
viewBox="0 0 0.4 0.4"
 xmlns:xlink="http://www.w3.org/1999/xlink"
 xmlns:xodm="http://www.corel.com/coreldraw/odm/2003">
 <defs>
  <style type="text/css">
   <![CDATA[
    .fil1 {fill:#B5E9FF}
    .fil2 {fill:url(#id0)}
    .fil0 {fill:url(#id1)}
    .fil4 {fill:url(#id2)}
    .fil3 {fill:url(#id3)}
   ]]>
  </style>
  <linearGradient id="id0" gradientUnits="userSpaceOnUse" x1="0.17" y1="0.13" x2="0.36" y2="0.37">
   <stop offset="0" style="stop-opacity:1; stop-color:#54CCFF"/>
   <stop offset="1" style="stop-opacity:1; stop-color:#489EC3"/>
  </linearGradient>
  <linearGradient id="id1" gradientUnits="userSpaceOnUse" x1="0.17" y1="0.03" x2="0.36" y2="0.27">
   <stop offset="0" style="stop-opacity:1; stop-color:#14B9FF"/>
   <stop offset="1" style="stop-opacity:1; stop-color:#047AAC"/>
  </linearGradient>
  <linearGradient id="id2" gradientUnits="userSpaceOnUse" x1="0.32" y1="0.13" x2="0.27" y2="0.04">
   <stop offset="0" style="stop-opacity:1; stop-color:white"/>
   <stop offset="1" style="stop-opacity:1; stop-color:#B5E9FF"/>
  </linearGradient>
  <linearGradient id="id3" gradientUnits="userSpaceOnUse" xlink:href="#id2" x1="0.16" y1="0.14" x2="0.08" y2="0.05">
  </linearGradient>
 </defs>
 <g id="Слой_x0020_1">
  <metadata id="CorelCorpID_0Corel-Layer"/>
  <g id="_2094436904064">
   <rect class="fil0" width="0.4" height="0.4" rx="0.08" ry="0.08"/>
   <path class="fil1" d="M0.06 0.05c-0.01,0 -0.01,0.01 -0.01,0.02 0,0.05 0,0.22 0,0.26 0,0.01 0,0.02 0.01,0.02 0,0 0.01,0 0.02,0 0.02,0 0.04,0 0.06,0 0.01,0 0.02,0 0.02,0 0.01,0 0.01,-0.01 0.01,-0.02 0,-0.04 0,-0.21 0,-0.26 0,-0.01 0,-0.02 -0.01,-0.02 0,0 -0.01,0 -0.02,0 -0.02,0 -0.04,0 -0.06,0 -0.01,0 -0.02,0 -0.02,0z"/>
   <path class="fil1" d="M0.24 0.05c-0.01,0 -0.01,0.01 -0.01,0.02 0,0.05 0,0.12 0,0.16 0,0.01 0,0.02 0.01,0.02 0,0 0.01,0 0.02,0 0.02,0 0.04,0 0.06,0 0.01,0 0.02,0 0.02,0 0.01,0 0.01,-0.01 0.01,-0.02 0,-0.04 0,-0.11 0,-0.16 0,-0.01 0,-0.02 -0.01,-0.02 0,0 -0.01,0 -0.02,0 -0.02,0 -0.04,0 -0.06,0 -0.01,0 -0.02,0 -0.02,0z"/>
   <path class="fil2" d="M0.36 0.01c-0.01,-0.01 -0.02,-0.01 -0.04,-0.01l-0.24 0c-0.04,0 -0.08,0.04 -0.08,0.08l0 0.16c0.08,0.02 0.18,0 0.26,-0.07 0.06,-0.04 0.09,-0.1 0.1,-0.16z"/>
   <path class="fil3" d="M0.06 0.05c-0.01,0 -0.01,0.01 -0.01,0.02l0 0.18c0.04,0 0.08,-0.01 0.12,-0.02l0 -0.16c0,-0.01 0,-0.02 -0.01,-0.02 0,0 -0.01,0 -0.02,0 -0.02,0 -0.04,0 -0.06,0 -0.01,0 -0.02,0 -0.02,0z"/>
   <path class="fil4" d="M0.24 0.05c-0.01,0 -0.01,0.01 -0.01,0.02l0 0.13c0.01,-0.01 0.02,-0.02 0.03,-0.03 0.04,-0.03 0.07,-0.07 0.09,-0.11 0,0 -0.01,-0.01 -0.01,-0.01 0,0 -0.01,0 -0.02,0 -0.02,0 -0.04,0 -0.06,0 -0.01,0 -0.02,0 -0.02,0z"/>
  </g>
 </g>
</svg>
